<svg data-v-423bf9ae="" xmlns="http://www.w3.org/2000/svg" viewBox="0 0 326 90" class="iconLeftSlogan"><!----><!----><!----><g data-v-423bf9ae="" id="e04b5c00-68c1-4b53-b810-f2d80bd64d66" fill="#FFFFFF" transform="matrix(4.808325309113267,0,0,4.808325309113267,98.33147497894393,-12.748307081747335)"><path d="M10.02 13.52L10.02 4.36L9.53 4.36L5.80 8.44L2.00 4.36L1.50 4.36L1.50 13.52L2.73 13.52L2.73 6.82L5.62 9.97L5.97 9.97L8.79 6.82L8.79 13.52ZM15.78 6.55C13.70 6.55 12.21 8.20 12.21 10.14C12.21 12.09 13.70 13.73 15.78 13.73C17.86 13.73 19.35 12.09 19.35 10.14C19.35 8.20 17.86 6.55 15.78 6.55ZM15.78 7.64C17.24 7.64 18.18 8.82 18.18 10.14C18.18 11.47 17.24 12.63 15.78 12.63C14.31 12.63 13.37 11.47 13.37 10.14C13.37 8.82 14.31 7.64 15.78 7.64ZM23.73 13.52L26.95 6.69L25.61 6.69L23.37 11.72L21.30 6.69L19.96 6.69L23.04 13.52ZM29.41 5.26C29.93 5.26 30.34 4.81 30.34 4.33C30.34 3.84 29.93 3.40 29.41 3.40C28.88 3.40 28.48 3.84 28.48 4.33C28.48 4.81 28.88 5.26 29.41 5.26ZM30.11 6.69L27.90 6.69L27.90 7.74L28.98 7.74L28.98 13.52L30.11 13.52ZM35.62 6.55C33.54 6.55 32.05 8.20 32.05 10.14C32.05 12.09 33.54 13.73 35.62 13.73C37.69 13.73 39.18 12.09 39.18 10.14C39.18 8.20 37.69 6.55 35.62 6.55ZM35.62 7.64C37.08 7.64 38.02 8.82 38.02 10.14C38.02 11.47 37.08 12.63 35.62 12.63C34.15 12.63 33.21 11.47 33.21 10.14C33.21 8.82 34.15 7.64 35.62 7.64Z"></path></g><!----><g data-v-423bf9ae="" id="6b92bdc5-41c4-4a05-b259-604e36cc4819" transform="matrix(1.035911634958751,0,0,1.035911634958751,-6.790836013690665,-6.217839977111815)" stroke="none" fill="#81E291"><path d="M34.571 16.321h5.716v5.716h-5.716zM34.571 28.368h5.716v5.716h-5.716zM34.571 40.416h5.716v5.716h-5.716zM34.571 52.464h5.716v5.716h-5.716zM80.349 16.321h5.716v5.716h-5.716zM80.349 28.368h5.716v5.716h-5.716zM80.349 40.416h5.716v5.716h-5.716zM80.349 52.464h5.716v5.716h-5.716zM52.324 50.356a1.12 1.12 0 0 1-1.118-1.117V26.271a1.117 1.117 0 0 1 1.702-.951l18.704 11.483c.332.203.532.563.532.951 0 .389-.201.749-.532.951L52.909 50.19a1.109 1.109 0 0 1-.585.166zm1.118-22.088v18.974l15.45-9.488-15.45-9.486z"></path><path d="M81.978 8.301c4.025 0 7.3 3.275 7.3 7.3V59.3c0 4.025-3.275 7.3-7.3 7.3H38.279c-4.025 0-7.3-3.275-7.3-7.3V15.601c0-4.025 3.275-7.3 7.3-7.3h43.699m0-2.235H38.279a9.535 9.535 0 0 0-9.535 9.535V59.3a9.535 9.535 0 0 0 9.535 9.535h43.699a9.535 9.535 0 0 0 9.535-9.535V15.601c-.001-5.266-4.27-9.535-9.535-9.535z"></path><path d="M74.63 71.069h-2.299l.225.924a7.487 7.487 0 0 1-.884 5.706 7.503 7.503 0 0 1-4.661 3.409l-38.573 9.386a7.502 7.502 0 0 1-5.706-.886 7.5 7.5 0 0 1-3.409-4.661L9.94 46.377a7.492 7.492 0 0 1 .886-5.706 7.5 7.5 0 0 1 4.661-3.409L26.51 34.58v-2.3l-11.551 2.809a9.724 9.724 0 0 0-6.043 4.419 9.72 9.72 0 0 0-1.148 7.396l9.386 38.57a9.707 9.707 0 0 0 4.417 6.043 9.725 9.725 0 0 0 5.065 1.429c.775 0 1.558-.094 2.331-.284l38.573-9.386a9.693 9.693 0 0 0 6.04-4.417 9.708 9.708 0 0 0 1.148-7.396l-.098-.394z"></path></g><!----><g data-v-423bf9ae="" id="df029c65-7dc9-461f-9765-f56ff26c25c1" stroke="#FFFFFF" fill="#FFFFFF" transform="matrix(0.5565367642307227,0,0,0.6365367642307227,106.55067590300786,69.08327368106087)"><path d="M8.93 2.21L5.67 6.61L2.35 2.21L1.13 2.21L1.13 11.48L2.18 11.48L2.18 3.81L5.67 8.22L9.10 3.81L9.10 11.48L10.15 11.48L10.15 2.21ZM23.53 2.10C20.72 2.10 18.83 4.21 18.83 6.85C18.83 9.48 20.72 11.59 23.53 11.59C26.35 11.59 28.24 9.48 28.24 6.85C28.24 4.21 26.35 2.10 23.53 2.10ZM23.53 10.57C21.28 10.57 19.88 8.93 19.88 6.85C19.88 4.76 21.28 3.12 23.53 3.12C25.79 3.12 27.19 4.76 27.19 6.85C27.19 8.93 25.79 10.57 23.53 10.57ZM43.22 2.21L40.01 10.29L36.81 2.21L35.66 2.21L39.41 11.48L40.61 11.48L44.37 2.21ZM53.59 2.21L52.54 2.21L52.54 11.48L53.59 11.48ZM69.68 3.22L69.68 2.21L62.86 2.21L62.86 11.48L69.68 11.48L69.68 10.47L63.91 10.47L63.91 7.35L69.06 7.35L69.06 6.33L63.91 6.33L63.91 3.22ZM92.33 2.10C89.54 2.10 87.77 4.21 87.77 6.85C87.77 9.48 89.47 11.59 92.30 11.59C93.98 11.59 95.07 10.74 95.66 9.84L95.66 11.48L96.63 11.48L96.63 6.55L92.27 6.55L92.27 7.50L95.66 7.50C95.66 9.44 94.07 10.57 92.39 10.57C90.13 10.57 88.82 8.93 88.82 6.85C88.82 4.76 90.16 3.12 92.41 3.12C93.83 3.12 94.84 3.74 95.40 4.73L96.54 4.73C95.86 3.18 94.32 2.10 92.33 2.10ZM112.20 2.21L112.20 7.52C112.20 9.67 110.77 10.57 109.30 10.57C107.83 10.57 106.41 9.67 106.41 7.52L106.41 2.21L105.36 2.21L105.36 7.49C105.36 9.95 106.99 11.59 109.30 11.59C111.62 11.59 113.25 9.94 113.25 7.49L113.25 2.21ZM123.45 2.21L122.40 2.21L122.40 11.48L123.45 11.48ZM136.63 2.21L132.72 2.21L132.72 11.48L136.63 11.48C138.84 11.48 140.88 9.74 140.88 6.85C140.88 3.95 138.84 2.21 136.63 2.21ZM136.58 10.49L133.77 10.49L133.77 3.21L136.58 3.21C138.56 3.21 139.83 4.86 139.83 6.85C139.83 8.83 138.56 10.49 136.58 10.49ZM156.39 3.22L156.39 2.21L149.58 2.21L149.58 11.48L156.39 11.48L156.39 10.47L150.63 10.47L150.63 7.35L155.78 7.35L155.78 6.33L150.63 6.33L150.63 3.22ZM164.70 10.05L164.70 11.48L166.05 11.48L166.05 10.05ZM191.49 2.21L183.97 2.21L183.97 3.22L187.21 3.22L187.21 11.48L188.26 11.48L188.26 3.22L191.49 3.22ZM206.29 2.21L203.08 10.29L199.88 2.21L198.73 2.21L202.48 11.48L203.69 11.48L207.44 2.21ZM229.57 2.10C226.79 2.10 225.01 4.21 225.01 6.85C225.01 9.48 226.72 11.59 229.54 11.59C231.22 11.59 232.32 10.74 232.90 9.84L232.90 11.48L233.87 11.48L233.87 6.55L229.52 6.55L229.52 7.50L232.90 7.50C232.90 9.44 231.31 10.57 229.63 10.57C227.37 10.57 226.06 8.93 226.06 6.85C226.06 4.76 227.40 3.12 229.66 3.12C231.07 3.12 232.08 3.74 232.64 4.73L233.79 4.73C233.10 3.18 231.56 2.10 229.57 2.10ZM249.44 2.21L249.44 7.52C249.44 9.67 248.01 10.57 246.54 10.57C245.07 10.57 243.66 9.67 243.66 7.52L243.66 2.21L242.61 2.21L242.61 7.49C242.61 9.95 244.23 11.59 246.54 11.59C248.86 11.59 250.49 9.94 250.49 7.49L250.49 2.21ZM260.69 2.21L259.64 2.21L259.64 11.48L260.69 11.48ZM273.87 2.21L269.96 2.21L269.96 11.48L273.87 11.48C276.08 11.48 278.12 9.74 278.12 6.85C278.12 3.95 276.08 2.21 273.87 2.21ZM273.83 10.49L271.01 10.49L271.01 3.21L273.83 3.21C275.80 3.21 277.07 4.86 277.07 6.85C277.07 8.83 275.80 10.49 273.83 10.49ZM293.64 3.22L293.64 2.21L286.82 2.21L286.82 11.48L293.64 11.48L293.64 10.47L287.87 10.47L287.87 7.35L293.02 7.35L293.02 6.33L287.87 6.33L287.87 3.22ZM301.94 10.05L301.94 11.48L303.30 11.48L303.30 10.05ZM329.95 2.21L326.69 6.61L323.37 2.21L322.15 2.21L322.15 11.48L323.20 11.48L323.20 3.81L326.69 8.22L330.12 3.81L330.12 11.48L331.17 11.48L331.17 2.21ZM344.55 2.10C341.74 2.10 339.85 4.21 339.85 6.85C339.85 9.48 341.74 11.59 344.55 11.59C347.37 11.59 349.26 9.48 349.26 6.85C349.26 4.21 347.37 2.10 344.55 2.10ZM344.55 10.57C342.30 10.57 340.90 8.93 340.90 6.85C340.90 4.76 342.30 3.12 344.55 3.12C346.81 3.12 348.21 4.76 348.21 6.85C348.21 8.93 346.81 10.57 344.55 10.57ZM364.24 2.21L361.03 10.29L357.83 2.21L356.68 2.21L360.43 11.48L361.63 11.48L365.39 2.21ZM374.61 2.21L373.56 2.21L373.56 11.48L374.61 11.48ZM388.00 2.10C385.18 2.10 383.29 4.21 383.29 6.85C383.29 9.48 385.18 11.59 388.00 11.59C390.81 11.59 392.70 9.48 392.70 6.85C392.70 4.21 390.81 2.10 388.00 2.10ZM388.00 10.57C385.74 10.57 384.34 8.93 384.34 6.85C384.34 4.76 385.74 3.12 388.00 3.12C390.25 3.12 391.65 4.76 391.65 6.85C391.65 8.93 390.25 10.57 388.00 10.57ZM400.85 10.05L400.85 11.48L402.21 11.48L402.21 10.05Z"></path></g></svg>